<svg width="187" height="49" viewBox="0 0 187 49" fill="none" xmlns="http://www.w3.org/2000/svg">
<path d="M186.599 48.6968L181.306 38.4342L175.065 48.149L186.599 48.6968ZM137.054 16.8664L137.594 16.0251V16.0251L137.054 16.8664ZM72.3684 1.56671L72.262 0.57238V0.57238L72.3684 1.56671ZM184.122 47.1053L184.662 46.2639L183.011 45.2029L182.47 46.0442L181.93 46.8856L183.581 47.9466L184.122 47.1053ZM180.819 44.9832L181.359 44.1419L179.708 43.0809L179.167 43.9222L178.627 44.7636L180.278 45.8246L180.819 44.9832ZM177.516 42.8612L178.056 42.0199L176.405 40.9589L175.864 41.8002L175.324 42.6415L176.975 43.7025L177.516 42.8612ZM174.213 40.7392L174.753 39.8979L173.102 38.8368L172.561 39.6782L172.021 40.5195L173.672 41.5805L174.213 40.7392ZM170.91 38.6172L171.45 37.7758L169.799 36.7148L169.258 37.5562L168.718 38.3975L170.369 39.4585L170.91 38.6172ZM167.607 36.4951L168.147 35.6538L166.496 34.5928L165.955 35.4341L165.415 36.2755L167.066 37.3365L167.607 36.4951ZM164.304 34.3731L164.844 33.5318L163.193 32.4708L162.652 33.3121L162.112 34.1534L163.763 35.2145L164.304 34.3731ZM161.001 32.2511L161.541 31.4098L159.89 30.3488L159.349 31.1901L158.809 32.0314L160.46 33.0924L161.001 32.2511ZM157.698 30.1291L158.238 29.2877L156.587 28.2267L156.046 29.0681L155.506 29.9094L157.157 30.9704L157.698 30.1291ZM154.395 28.007L154.935 27.1657L153.284 26.1047L152.743 26.946L152.203 27.7874L153.854 28.8484L154.395 28.007ZM151.092 25.885L151.632 25.0437L149.981 23.9827L149.44 24.824L148.9 25.6653L150.551 26.7264L151.092 25.885ZM147.789 23.763L148.329 22.9217L146.678 21.8607L146.137 22.702L145.597 23.5433L147.248 24.6043L147.789 23.763ZM144.486 21.641L145.026 20.7996L143.375 19.7386L142.834 20.58L142.294 21.4213L143.945 22.4823L144.486 21.641ZM141.183 19.5189L141.723 18.6776L140.072 17.6166L139.531 18.4579L138.991 19.2993L140.642 20.3603L141.183 19.5189ZM137.88 17.3969L138.42 16.5556L137.594 16.0251L137.054 16.8664L136.513 17.7078L137.339 18.2383L137.88 17.3969ZM137.054 16.8664L137.594 16.0251C137.312 15.8436 137.029 15.6636 136.745 15.4851L136.213 16.3318L135.68 17.1784C135.959 17.3534 136.237 17.5299 136.513 17.7078L137.054 16.8664ZM134.515 15.2882L135.03 14.4311C134.454 14.0852 133.876 13.7453 133.295 13.4115L132.797 14.2787L132.299 15.1459C132.868 15.4731 133.436 15.8063 134 16.1453L134.515 15.2882ZM131.059 13.3036L131.539 12.4267C130.95 12.104 130.359 11.7875 129.765 11.477L129.302 12.3634L128.839 13.2497C129.421 13.554 130.001 13.8643 130.578 14.1806L131.059 13.3036ZM127.526 11.4583L127.971 10.5629C127.37 10.264 126.766 9.97131 126.16 9.68477L125.733 10.5889L125.306 11.493C125.9 11.7738 126.492 12.0608 127.081 12.3537L127.526 11.4583ZM123.923 9.75532L124.332 8.84288C123.72 8.5682 123.105 8.29975 122.487 8.03757L122.096 8.95799L121.705 9.8784C122.31 10.1354 122.913 10.3985 123.514 10.6678L123.923 9.75532ZM120.254 8.1972L120.627 7.26918C120.004 7.01915 119.379 6.77543 118.752 6.53802L118.398 7.47329L118.044 8.40856C118.659 8.64126 119.271 8.88016 119.882 9.12523L120.254 8.1972ZM116.527 6.78653L116.862 5.8444C116.23 5.61942 115.595 5.4008 114.959 5.18857L114.643 6.1372L114.326 7.08583C114.95 7.29385 115.572 7.50814 116.192 7.72867L116.527 6.78653ZM112.746 5.52554L113.043 4.57079C112.403 4.37121 111.76 4.17804 111.116 3.99131L110.837 4.95179L110.559 5.91227C111.191 6.0953 111.821 6.28465 112.449 6.48028L112.746 5.52554ZM108.918 4.41619L109.177 3.45035C108.529 3.27647 107.879 3.10905 107.228 2.94813L106.988 3.91894L106.748 4.88975C107.387 5.04748 108.024 5.21158 108.659 5.38203L108.918 4.41619ZM105.049 3.46023L105.269 2.48484C104.615 2.33693 103.959 2.19553 103.302 2.06067L103.101 3.04026L102.9 4.01985C103.544 4.15204 104.187 4.29064 104.828 4.43563L105.049 3.46023ZM101.145 2.65918L101.326 1.67578C100.666 1.55406 100.005 1.43891 99.3431 1.33033L99.1813 2.31715L99.0195 3.30398C99.6686 3.4104 100.316 3.52328 100.963 3.64259L101.145 2.65918ZM97.2115 2.01431L97.3536 1.02446C96.6897 0.929138 96.0246 0.840407 95.3585 0.758294L95.2362 1.75078L95.1138 2.74327C95.7667 2.82375 96.4186 2.91073 97.0694 3.00416L97.2115 2.01431ZM93.2559 1.52666L93.3585 0.531937C92.6912 0.463153 92.0232 0.400995 91.3543 0.345486L91.2716 1.34206L91.1889 2.33863C91.8445 2.39304 92.4994 2.45397 93.1533 2.52139L93.2559 1.52666ZM89.2839 1.19704L89.3467 0.199014C88.6774 0.156881 88.0074 0.1214 87.3367 0.0925915L87.2938 1.09167L87.2509 2.09075C87.9083 2.11899 88.565 2.15376 89.2211 2.19507L89.2839 1.19704ZM85.3021 1.02599L85.3251 0.0262537C84.6547 0.0108356 83.9838 0.0020852 83.3125 2.99365e-05L83.3094 1.00002L83.3064 2.00002C83.9644 2.00203 84.622 2.01061 85.2791 2.02572L85.3021 1.02599ZM81.3167 1.01378L81.2998 0.0139251C80.6294 0.0252365 79.9587 0.0432319 79.2878 0.0679352L79.3246 1.06726L79.3614 2.06658C80.019 2.04237 80.6764 2.02473 81.3335 2.01364L81.3167 1.01378ZM77.3339 1.16042L77.2772 0.162033C76.6079 0.200047 75.9384 0.244754 75.2689 0.296173L75.3455 1.29324L75.4221 2.2903C76.0783 2.2399 76.7345 2.19608 77.3906 2.15881L77.3339 1.16042ZM73.3602 1.46564L73.2637 0.470298C72.9298 0.502647 72.5959 0.536674 72.262 0.57238L72.3684 1.56671L72.4747 2.56104C72.802 2.52604 73.1293 2.49269 73.4566 2.46098L73.3602 1.46564ZM72.3684 1.56671L72.262 0.57238L71.2584 0.679714L71.3647 1.67404L71.4711 2.66837L72.4747 2.56104L72.3684 1.56671ZM69.3575 1.88871L69.2511 0.894382L67.2438 1.10905L67.3502 2.10338L67.4565 3.09771L69.4638 2.88304L69.3575 1.88871ZM65.3429 2.31805L65.2366 1.32372L63.2293 1.53838L63.3356 2.53271L63.4419 3.52704L65.4492 3.31238L65.3429 2.31805ZM61.3283 2.74738L61.222 1.75305L59.2147 1.96772L59.321 2.96205L59.4274 3.95638L61.4347 3.74171L61.3283 2.74738ZM57.3138 3.17672L57.2074 2.18239L55.2001 2.39706L55.3065 3.39138L55.4128 4.38572L57.4201 4.17105L57.3138 3.17672ZM53.2992 3.60605L53.1929 2.61172L51.1856 2.82639L51.2919 3.82072L51.3983 4.81505L53.4055 4.60038L53.2992 3.60605ZM49.2846 4.03539L49.1783 3.04106L47.171 3.25573L47.2774 4.25006L47.3837 5.24439L49.391 5.02972L49.2846 4.03539ZM45.2701 4.46472L45.1637 3.47039L43.1565 3.68506L43.2628 4.67939L43.3691 5.67372L45.3764 5.45905L45.2701 4.46472ZM41.2555 4.89406L41.1492 3.89973L39.1419 4.1144L39.2482 5.10873L39.3546 6.10306L41.3619 5.88839L41.2555 4.89406ZM37.241 5.32339L37.1346 4.32907L35.1273 4.54373L35.2337 5.53806L35.34 6.53239L37.3473 6.31773L37.241 5.32339ZM33.2264 5.75273L33.1201 4.7584L31.1128 4.97307L31.2191 5.9674L31.3255 6.96173L33.3327 6.74706L33.2264 5.75273ZM29.2118 6.18207L29.1055 5.18773L27.0982 5.4024L27.2046 6.39673L27.3109 7.39106L29.3182 7.17639L29.2118 6.18207ZM25.1973 6.6114L25.0909 5.61707L23.0836 5.83174L23.19 6.82607L23.2963 7.8204L25.3036 7.60573L25.1973 6.6114ZM21.1827 7.04074L21.0764 6.04641L19.0691 6.26108L19.1754 7.2554L19.2818 8.24974L21.2891 8.03507L21.1827 7.04074ZM17.1681 7.47007L17.0618 6.47574L15.0545 6.69041L15.1609 7.68474L15.2672 8.67907L17.2745 8.4644L17.1681 7.47007ZM13.1536 7.89941L13.0473 6.90508L11.04 7.11974L11.1463 8.11408L11.2526 9.1084L13.2599 8.89374L13.1536 7.89941ZM9.13903 8.32874L9.03269 7.33441L7.02541 7.54908L7.13175 8.54341L7.23808 9.53774L9.24538 9.32307L9.13903 8.32874ZM5.12447 8.75808L5.01812 7.76375L3.01084 7.97842L3.11717 8.97275L3.22352 9.96708L5.2308 9.75241L5.12447 8.75808ZM1.10989 9.18741L1.00356 8.19309L-0.000105297 8.30042L0.106239 9.29475L0.212584 10.2891L1.21623 10.1817L1.10989 9.18741ZM186.599 48.6968L181.306 38.4342L175.065 48.149L186.599 48.6968ZM137.054 16.8664L137.594 16.0251V16.0251L137.054 16.8664ZM72.3684 1.56671L72.262 0.57238V0.57238L72.3684 1.56671ZM184.122 47.1053L184.662 46.2639L183.011 45.2029L182.47 46.0442L181.93 46.8856L183.581 47.9466L184.122 47.1053ZM180.819 44.9832L181.359 44.1419L179.708 43.0809L179.167 43.9222L178.627 44.7636L180.278 45.8246L180.819 44.9832ZM177.516 42.8612L178.056 42.0199L176.405 40.9589L175.864 41.8002L175.324 42.6415L176.975 43.7025L177.516 42.8612ZM174.213 40.7392L174.753 39.8979L173.102 38.8368L172.561 39.6782L172.021 40.5195L173.672 41.5805L174.213 40.7392ZM170.91 38.6172L171.45 37.7758L169.799 36.7148L169.258 37.5562L168.718 38.3975L170.369 39.4585L170.91 38.6172ZM167.607 36.4951L168.147 35.6538L166.496 34.5928L165.955 35.4341L165.415 36.2755L167.066 37.3365L167.607 36.4951ZM164.304 34.3731L164.844 33.5318L163.193 32.4708L162.652 33.3121L162.112 34.1534L163.763 35.2145L164.304 34.3731ZM161.001 32.2511L161.541 31.4098L159.89 30.3488L159.349 31.1901L158.809 32.0314L160.46 33.0924L161.001 32.2511ZM157.698 30.1291L158.238 29.2877L156.587 28.2267L156.046 29.0681L155.506 29.9094L157.157 30.9704L157.698 30.1291ZM154.395 28.007L154.935 27.1657L153.284 26.1047L152.743 26.946L152.203 27.7874L153.854 28.8484L154.395 28.007ZM151.092 25.885L151.632 25.0437L149.981 23.9827L149.44 24.824L148.9 25.6653L150.551 26.7264L151.092 25.885ZM147.789 23.763L148.329 22.9217L146.678 21.8607L146.137 22.702L145.597 23.5433L147.248 24.6043L147.789 23.763ZM144.486 21.641L145.026 20.7996L143.375 19.7386L142.834 20.58L142.294 21.4213L143.945 22.4823L144.486 21.641ZM141.183 19.5189L141.723 18.6776L140.072 17.6166L139.531 18.4579L138.991 19.2993L140.642 20.3603L141.183 19.5189ZM137.88 17.3969L138.42 16.5556L137.594 16.0251L137.054 16.8664L136.513 17.7078L137.339 18.2383L137.88 17.3969ZM137.054 16.8664L137.594 16.0251C137.312 15.8436 137.029 15.6636 136.745 15.4851L136.213 16.3318L135.68 17.1784C135.959 17.3534 136.237 17.5299 136.513 17.7078L137.054 16.8664ZM134.515 15.2882L135.03 14.4311C134.454 14.0852 133.876 13.7453 133.295 13.4115L132.797 14.2787L132.299 15.1459C132.868 15.4731 133.436 15.8063 134 16.1453L134.515 15.2882ZM131.059 13.3036L131.539 12.4267C130.95 12.104 130.359 11.7875 129.765 11.477L129.302 12.3634L128.839 13.2497C129.421 13.554 130.001 13.8643 130.578 14.1806L131.059 13.3036ZM127.526 11.4583L127.971 10.5629C127.37 10.264 126.766 9.97131 126.16 9.68477L125.733 10.5889L125.306 11.493C125.9 11.7738 126.492 12.0608 127.081 12.3537L127.526 11.4583ZM123.923 9.75532L124.332 8.84288C123.72 8.5682 123.105 8.29975 122.487 8.03757L122.096 8.95799L121.705 9.8784C122.31 10.1354 122.913 10.3985 123.514 10.6678L123.923 9.75532ZM120.254 8.1972L120.627 7.26918C120.004 7.01915 119.379 6.77543 118.752 6.53802L118.398 7.47329L118.044 8.40856C118.659 8.64126 119.271 8.88016 119.882 9.12523L120.254 8.1972ZM116.527 6.78653L116.862 5.8444C116.23 5.61942 115.595 5.4008 114.959 5.18857L114.643 6.1372L114.326 7.08583C114.95 7.29385 115.572 7.50814 116.192 7.72867L116.527 6.78653ZM112.746 5.52554L113.043 4.57079C112.403 4.37121 111.76 4.17804 111.116 3.99131L110.837 4.95179L110.559 5.91227C111.191 6.0953 111.821 6.28465 112.449 6.48028L112.746 5.52554ZM108.918 4.41619L109.177 3.45035C108.529 3.27647 107.879 3.10905 107.228 2.94813L106.988 3.91894L106.748 4.88975C107.387 5.04748 108.024 5.21158 108.659 5.38203L108.918 4.41619ZM105.049 3.46023L105.269 2.48484C104.615 2.33693 103.959 2.19553 103.302 2.06067L103.101 3.04026L102.9 4.01985C103.544 4.15204 104.187 4.29064 104.828 4.43563L105.049 3.46023ZM101.145 2.65918L101.326 1.67578C100.666 1.55406 100.005 1.43891 99.3431 1.33033L99.1813 2.31715L99.0195 3.30398C99.6686 3.4104 100.316 3.52328 100.963 3.64259L101.145 2.65918ZM97.2115 2.01431L97.3536 1.02446C96.6897 0.929138 96.0246 0.840407 95.3585 0.758294L95.2362 1.75078L95.1138 2.74327C95.7667 2.82375 96.4186 2.91073 97.0694 3.00416L97.2115 2.01431ZM93.2559 1.52666L93.3585 0.531937C92.6912 0.463153 92.0232 0.400995 91.3543 0.345486L91.2716 1.34206L91.1889 2.33863C91.8445 2.39304 92.4994 2.45397 93.1533 2.52139L93.2559 1.52666ZM89.2839 1.19704L89.3467 0.199014C88.6774 0.156881 88.0074 0.1214 87.3367 0.0925915L87.2938 1.09167L87.2509 2.09075C87.9083 2.11899 88.565 2.15376 89.2211 2.19507L89.2839 1.19704ZM85.3021 1.02599L85.3251 0.0262537C84.6547 0.0108356 83.9838 0.0020852 83.3125 2.99365e-05L83.3094 1.00002L83.3064 2.00002C83.9644 2.00203 84.622 2.01061 85.2791 2.02572L85.3021 1.02599ZM81.3167 1.01378L81.2998 0.0139251C80.6294 0.0252365 79.9587 0.0432319 79.2878 0.0679352L79.3246 1.06726L79.3614 2.06658C80.019 2.04237 80.6764 2.02473 81.3335 2.01364L81.3167 1.01378ZM77.3339 1.16042L77.2772 0.162033C76.6079 0.200047 75.9384 0.244754 75.2689 0.296173L75.3455 1.29324L75.4221 2.2903C76.0783 2.2399 76.7345 2.19608 77.3906 2.15881L77.3339 1.16042ZM73.3602 1.46564L73.2637 0.470298C72.9298 0.502647 72.5959 0.536674 72.262 0.57238L72.3684 1.56671L72.4747 2.56104C72.802 2.52604 73.1293 2.49269 73.4566 2.46098L73.3602 1.46564ZM72.3684 1.56671L72.262 0.57238L71.2584 0.679714L71.3647 1.67404L71.4711 2.66837L72.4747 2.56104L72.3684 1.56671ZM69.3575 1.88871L69.2511 0.894382L67.2438 1.10905L67.3502 2.10338L67.4565 3.09771L69.4638 2.88304L69.3575 1.88871ZM65.3429 2.31805L65.2366 1.32372L63.2293 1.53838L63.3356 2.53271L63.4419 3.52704L65.4492 3.31238L65.3429 2.31805ZM61.3283 2.74738L61.222 1.75305L59.2147 1.96772L59.321 2.96205L59.4274 3.95638L61.4347 3.74171L61.3283 2.74738ZM57.3138 3.17672L57.2074 2.18239L55.2001 2.39706L55.3065 3.39138L55.4128 4.38572L57.4201 4.17105L57.3138 3.17672ZM53.2992 3.60605L53.1929 2.61172L51.1856 2.82639L51.2919 3.82072L51.3983 4.81505L53.4055 4.60038L53.2992 3.60605ZM49.2846 4.03539L49.1783 3.04106L47.171 3.25573L47.2774 4.25006L47.3837 5.24439L49.391 5.02972L49.2846 4.03539ZM45.2701 4.46472L45.1637 3.47039L43.1565 3.68506L43.2628 4.67939L43.3691 5.67372L45.3764 5.45905L45.2701 4.46472ZM41.2555 4.89406L41.1492 3.89973L39.1419 4.1144L39.2482 5.10873L39.3546 6.10306L41.3619 5.88839L41.2555 4.89406ZM37.241 5.32339L37.1346 4.32907L35.1273 4.54373L35.2337 5.53806L35.34 6.53239L37.3473 6.31773L37.241 5.32339ZM33.2264 5.75273L33.1201 4.7584L31.1128 4.97307L31.2191 5.9674L31.3255 6.96173L33.3327 6.74706L33.2264 5.75273ZM29.2118 6.18207L29.1055 5.18773L27.0982 5.4024L27.2046 6.39673L27.3109 7.39106L29.3182 7.17639L29.2118 6.18207ZM25.1973 6.6114L25.0909 5.61707L23.0836 5.83174L23.19 6.82607L23.2963 7.8204L25.3036 7.60573L25.1973 6.6114ZM21.1827 7.04074L21.0764 6.04641L19.0691 6.26108L19.1754 7.2554L19.2818 8.24974L21.2891 8.03507L21.1827 7.04074ZM17.1681 7.47007L17.0618 6.47574L15.0545 6.69041L15.1609 7.68474L15.2672 8.67907L17.2745 8.4644L17.1681 7.47007ZM13.1536 7.89941L13.0473 6.90508L11.04 7.11974L11.1463 8.11408L11.2526 9.1084L13.2599 8.89374L13.1536 7.89941ZM9.13903 8.32874L9.03269 7.33441L7.02541 7.54908L7.13175 8.54341L7.23808 9.53774L9.24538 9.32307L9.13903 8.32874ZM5.12447 8.75808L5.01812 7.76375L3.01084 7.97842L3.11717 8.97275L3.22352 9.96708L5.2308 9.75241L5.12447 8.75808ZM1.10989 9.18741L1.00356 8.19309L-0.000105297 8.30042L0.106239 9.29475L0.212584 10.2891L1.21623 10.1817L1.10989 9.18741Z" fill="#2563EB"/>
</svg>
